<svg width="21" height="21" viewBox="0 0 21 21" fill="none" xmlns="http://www.w3.org/2000/svg">
<path d="M10.5 0.141113C8.52219 0.141113 6.58879 0.727603 4.9443 1.82642C3.29981 2.92523 2.01809 4.48702 1.26121 6.31428C0.504333 8.14154 0.306299 10.1522 0.692152 12.092C1.078 14.0318 2.03041 15.8137 3.42894 17.2122C4.82746 18.6107 6.60929 19.5631 8.5491 19.949C10.4889 20.3348 12.4996 20.1368 14.3268 19.3799C16.1541 18.623 17.7159 17.3413 18.8147 15.6968C19.9135 14.0523 20.5 12.1189 20.5 10.1411C20.5 8.82789 20.2413 7.52753 19.7388 6.31428C19.2363 5.10102 18.4997 3.99863 17.5711 3.07005C16.6425 2.14146 15.5401 1.40486 14.3268 0.902318C13.1136 0.399771 11.8132 0.141113 10.5 0.141113ZM10.5 16.1411C10.3022 16.1411 10.1089 16.0825 9.94443 15.9726C9.77999 15.8627 9.65181 15.7065 9.57613 15.5238C9.50044 15.3411 9.48063 15.14 9.51922 14.946C9.55781 14.752 9.65305 14.5739 9.7929 14.434C9.93275 14.2942 10.1109 14.1989 10.3049 14.1603C10.4989 14.1217 10.7 14.1415 10.8827 14.2172C11.0654 14.2929 11.2216 14.4211 11.3315 14.5855C11.4414 14.75 11.5 14.9433 11.5 15.1411C11.5 15.4063 11.3946 15.6607 11.2071 15.8482C11.0196 16.0358 10.7652 16.1411 10.5 16.1411ZM11.5 10.9811V12.1411C11.5 12.4063 11.3946 12.6607 11.2071 12.8482C11.0196 13.0358 10.7652 13.1411 10.5 13.1411C10.2348 13.1411 9.98043 13.0358 9.7929 12.8482C9.60536 12.6607 9.5 12.4063 9.5 12.1411V10.1411C9.5 9.8759 9.60536 9.62154 9.7929 9.43401C9.98043 9.24647 10.2348 9.14111 10.5 9.14111C10.7967 9.14111 11.0867 9.05314 11.3334 8.88832C11.58 8.72349 11.7723 8.48923 11.8858 8.21514C11.9994 7.94105 12.0291 7.63945 11.9712 7.34848C11.9133 7.05751 11.7704 6.79023 11.5607 6.58045C11.3509 6.37067 11.0836 6.22781 10.7926 6.16993C10.5017 6.11206 10.2001 6.14176 9.92598 6.25529C9.65189 6.36882 9.41762 6.56108 9.2528 6.80776C9.08798 7.05443 9 7.34444 9 7.64111C9 7.90633 8.89465 8.16068 8.70711 8.34822C8.51958 8.53576 8.26522 8.64111 8 8.64111C7.73479 8.64111 7.48043 8.53576 7.2929 8.34822C7.10536 8.16068 7 7.90633 7 7.64111C6.99739 6.99141 7.17566 6.35381 7.51487 5.79969C7.85408 5.24556 8.34083 4.79679 8.92062 4.50362C9.50042 4.21044 10.1504 4.08444 10.7977 4.13971C11.4451 4.19498 12.0643 4.42934 12.586 4.81656C13.1077 5.20378 13.5113 5.72857 13.7517 6.33218C13.992 6.93579 14.0596 7.59438 13.9469 8.23423C13.8342 8.87408 13.5456 9.46993 13.1134 9.95507C12.6813 10.4402 12.1226 10.7955 11.5 10.9811Z" fill="#5154CB"/>
</svg>
