<svg width="66" height="66" viewBox="0 0 66 66" fill="none" xmlns="http://www.w3.org/2000/svg">
<path d="M63.6427 2.35715V63.6429M2.45124 54.9686C2.44892 55.8166 2.67542 56.6496 3.10685 57.3797C3.53829 58.1099 4.15868 58.7101 4.90267 59.1171C5.61933 59.5309 6.43228 59.7487 7.25981 59.7487C8.08734 59.7487 8.90029 59.5309 9.61695 59.1171L43.5127 36.96C44.1743 36.5326 44.7183 35.9463 45.095 35.2545C45.4717 34.5628 45.669 33.7877 45.669 33C45.669 32.2123 45.4717 31.4372 45.095 30.7455C44.7183 30.0537 44.1743 29.4674 43.5127 29.04L9.52267 7.07143C8.806 6.65767 7.99305 6.43984 7.16552 6.43984C6.33799 6.43984 5.52504 6.65767 4.80838 7.07143C4.0644 7.4785 3.444 8.07872 3.01257 8.80884C2.58113 9.53896 2.35464 10.3719 2.35695 11.22L2.45124 54.9686Z" stroke="#101279" stroke-linecap="round" stroke-linejoin="round"/>
</svg>
