<svg width="66" height="66" viewBox="0 0 66 66" fill="none" xmlns="http://www.w3.org/2000/svg">
<path d="M2.35709 2.35715V63.6429M63.5485 54.9686C63.5508 55.8166 63.3243 56.6496 62.8929 57.3797C62.4615 58.1099 61.8411 58.7101 61.0971 59.1171C60.3804 59.5309 59.5675 59.7487 58.7399 59.7487C57.9124 59.7487 57.0995 59.5309 56.3828 59.1171L22.4871 36.96C21.8255 36.5326 21.2814 35.9463 20.9048 35.2545C20.5281 34.5628 20.3307 33.7877 20.3307 33C20.3307 32.2123 20.5281 31.4372 20.9048 30.7455C21.2814 30.0537 21.8255 29.4674 22.4871 29.04L56.4771 7.07143C57.1938 6.65767 58.0067 6.43984 58.8342 6.43984C59.6618 6.43984 60.4747 6.65767 61.1914 7.07143C61.9354 7.4785 62.5558 8.07872 62.9872 8.80884C63.4186 9.53896 63.6451 10.3719 63.6428 11.22L63.5485 54.9686Z" stroke="#101279" stroke-linecap="round" stroke-linejoin="round"/>
</svg>
