<svg width="34" height="34" viewBox="0 0 34 34" fill="none" xmlns="http://www.w3.org/2000/svg">
<rect width="34" height="34" rx="17" fill="#FEE500"/>
<path d="M16.9998 9.39276C22.5871 9.39276 27.1157 12.5594 27.1157 16.4668C27.1157 20.3732 22.5871 23.5399 17.0007 23.5399C16.4445 23.539 15.8889 23.5072 15.3371 23.4448L11.0907 25.9365C10.6081 26.1655 10.4376 26.1404 10.636 25.5795L11.4953 22.4008C8.72089 21.139 6.88574 18.9524 6.88574 16.4668C6.88574 12.5603 11.4134 9.39276 17.0007 9.39276M22.6921 16.3587L24.1082 15.128C24.1899 15.0519 24.2355 14.9503 24.2354 14.8446C24.2352 14.7389 24.1894 14.6374 24.1075 14.5614C24.0255 14.4854 23.914 14.441 23.7962 14.4374C23.6785 14.4338 23.5638 14.4713 23.4763 14.542L21.619 16.1548V14.8221C21.619 14.7139 21.5711 14.6101 21.4858 14.5336C21.4005 14.4571 21.2849 14.4141 21.1643 14.4141C21.0437 14.4141 20.928 14.4571 20.8428 14.5336C20.7575 14.6101 20.7096 14.7139 20.7096 14.8221V17.032C20.6936 17.0951 20.6936 17.1607 20.7096 17.2238V18.4675C20.7096 18.5757 20.7575 18.6795 20.8428 18.756C20.928 18.8325 21.0437 18.8754 21.1643 18.8754C21.2849 18.8754 21.4005 18.8325 21.4858 18.756C21.5711 18.6795 21.619 18.5757 21.619 18.4675V17.2895L22.0303 16.9326L23.4059 18.6896C23.4403 18.7335 23.4839 18.7709 23.5344 18.7996C23.5848 18.8283 23.6411 18.8479 23.6999 18.8571C23.7588 18.8663 23.8191 18.8651 23.8774 18.8534C23.9357 18.8417 23.9909 18.8198 24.0398 18.789C24.0887 18.7582 24.1304 18.7191 24.1624 18.6738C24.1944 18.6285 24.2162 18.5781 24.2265 18.5253C24.2368 18.4725 24.2354 18.4184 24.2224 18.366C24.2093 18.3137 24.185 18.2642 24.1506 18.2203L22.6921 16.3587ZM19.8426 18.0216H18.4361V14.835C18.4307 14.7302 18.3805 14.6313 18.2959 14.5588C18.2113 14.4863 18.0989 14.4459 17.9819 14.4459C17.8649 14.4459 17.7525 14.4863 17.6679 14.5588C17.5833 14.6313 17.5331 14.7302 17.5277 14.835V18.4295C17.5277 18.6542 17.73 18.8374 17.9814 18.8374H19.8426C19.9632 18.8374 20.0788 18.7944 20.1641 18.7179C20.2494 18.6414 20.2973 18.5377 20.2973 18.4295C20.2973 18.3213 20.2494 18.2175 20.1641 18.141C20.0788 18.0645 19.9632 18.0216 19.8426 18.0216ZM14.2003 17.0786L14.8708 15.6025L15.4854 17.0778L14.2003 17.0786ZM16.6308 17.4995L16.6327 17.4857C16.6324 17.383 16.5887 17.2841 16.5104 17.2092L15.5028 14.7892C15.4605 14.6739 15.3801 14.5729 15.2721 14.4997C15.1642 14.4265 15.0339 14.3846 14.8987 14.3796C14.7627 14.3795 14.6298 14.4164 14.5175 14.4853C14.4053 14.5543 14.3189 14.6521 14.2697 14.7659L12.6686 18.2878C12.623 18.3879 12.6236 18.5002 12.6703 18.6C12.717 18.6998 12.806 18.7788 12.9177 18.8197C13.0293 18.8606 13.1545 18.8601 13.2657 18.8182C13.3769 18.7763 13.465 18.6965 13.5106 18.5963L13.8304 17.8936H15.8245L16.1116 18.5851C16.1312 18.6367 16.1621 18.6844 16.2026 18.7251C16.2431 18.7659 16.2922 18.7989 16.3472 18.8223C16.4022 18.8457 16.4618 18.859 16.5226 18.8613C16.5834 18.8637 16.6441 18.855 16.7011 18.8359C16.7581 18.8168 16.8103 18.7877 16.8545 18.7502C16.8987 18.7127 16.9341 18.6676 16.9585 18.6176C16.9829 18.5676 16.9959 18.5137 16.9967 18.4592C16.9975 18.4046 16.9861 18.3504 16.9632 18.2999L16.6308 17.4995ZM13.4297 14.8393C13.4299 14.7858 13.4184 14.7327 13.3957 14.6832C13.373 14.6336 13.3396 14.5886 13.2974 14.5507C13.2552 14.5128 13.2051 14.4827 13.1499 14.4622C13.0948 14.4418 13.0356 14.4313 12.9759 14.4314H9.84992C9.72933 14.4314 9.61367 14.4744 9.5284 14.5509C9.44313 14.6274 9.39523 14.7312 9.39523 14.8393C9.39523 14.9475 9.44313 15.0513 9.5284 15.1278C9.61367 15.2043 9.72933 15.2473 9.84992 15.2473H10.9674V18.4762C10.9674 18.5844 11.0153 18.6881 11.1006 18.7646C11.1858 18.8411 11.3015 18.8841 11.4221 18.8841C11.5427 18.8841 11.6583 18.8411 11.7436 18.7646C11.8289 18.6881 11.8768 18.5844 11.8768 18.4762V15.2473H12.975C13.0348 15.2475 13.094 15.2371 13.1493 15.2167C13.2046 15.1963 13.2548 15.1662 13.2971 15.1283C13.3393 15.0904 13.3728 15.0453 13.3956 14.9957C13.4183 14.9461 13.4299 14.893 13.4297 14.8393Z" fill="black"/>
</svg>
