<svg width="14" height="14" viewBox="0 0 14 14" fill="none" xmlns="http://www.w3.org/2000/svg">
<path d="M11.521 5.83331C11.521 5.71728 11.4749 5.606 11.3929 5.52396C11.3108 5.44191 11.1995 5.39581 11.0835 5.39581C10.9675 5.39581 10.8562 5.44191 10.7741 5.52396C10.6921 5.606 10.646 5.71728 10.646 5.83331H11.521ZM3.35434 5.83331C3.35434 5.71728 3.30824 5.606 3.2262 5.52396C3.14415 5.44191 3.03287 5.39581 2.91684 5.39581C2.80081 5.39581 2.68953 5.44191 2.60748 5.52396C2.52543 5.606 2.47934 5.71728 2.47934 5.83331H3.35434ZM11.941 7.30915C11.9811 7.35213 12.0294 7.38661 12.083 7.41052C12.1367 7.43443 12.1946 7.44729 12.2534 7.44833C12.3121 7.44936 12.3705 7.43856 12.4249 7.41655C12.4794 7.39455 12.5289 7.3618 12.5704 7.32025C12.612 7.27871 12.6447 7.22922 12.6667 7.17475C12.6887 7.12027 12.6996 7.06192 12.6985 7.00318C12.6975 6.94443 12.6846 6.8865 12.6607 6.83283C12.6368 6.77917 12.6023 6.73087 12.5593 6.69082L11.941 7.30915ZM7.00017 1.74998L7.30934 1.44081C7.22731 1.35889 7.11611 1.31287 7.00017 1.31287C6.88423 1.31287 6.77304 1.35889 6.691 1.44081L7.00017 1.74998ZM1.441 6.69082C1.39802 6.73087 1.36354 6.77917 1.33963 6.83283C1.31572 6.8865 1.30286 6.94443 1.30183 7.00318C1.30079 7.06192 1.3116 7.12027 1.3336 7.17475C1.3556 7.22922 1.38835 7.27871 1.4299 7.32025C1.47144 7.3618 1.52093 7.39455 1.57541 7.41655C1.62988 7.43856 1.68823 7.44936 1.74698 7.44833C1.80572 7.44729 1.86365 7.43443 1.91732 7.41052C1.97098 7.38661 2.01928 7.35213 2.05934 7.30915L1.441 6.69082ZM4.0835 12.6875H9.91684V11.8125H4.0835V12.6875ZM11.521 11.0833V5.83331H10.646V11.0833H11.521ZM3.35434 11.0833V5.83331H2.47934V11.0833H3.35434ZM12.5593 6.69082L7.30934 1.44081L6.691 2.05915L11.941 7.30915L12.5593 6.69082ZM6.691 1.44081L1.441 6.69082L2.05934 7.30915L7.30934 2.05915L6.691 1.44081ZM9.91684 12.6875C10.3423 12.6875 10.7503 12.5185 11.0512 12.2176C11.352 11.9168 11.521 11.5088 11.521 11.0833H10.646C10.646 11.4858 10.3193 11.8125 9.91684 11.8125V12.6875ZM4.0835 11.8125C3.681 11.8125 3.35434 11.4858 3.35434 11.0833H2.47934C2.47934 11.5088 2.64835 11.9168 2.94919 12.2176C3.25003 12.5185 3.65805 12.6875 4.0835 12.6875V11.8125Z" fill="#A4A4A4"/>
</svg>
