<svg width="60" height="60" viewBox="0 0 60 60" fill="none" xmlns="http://www.w3.org/2000/svg">
<g clip-path="url(#clip0_111_6)">
<path d="M30 60C46.5685 60 60 46.5685 60 30C60 13.4315 46.5685 0 30 0C13.4315 0 0 13.4315 0 30C0 46.5685 13.4315 60 30 60Z" fill="#021234"/>
<path d="M16.3202 24.7616H13.7487V30.2192C11.4957 28.1988 9.24753 26.1784 6.93945 24.1616V35.2384H9.51081V29.7808C11.6562 31.6849 13.9595 33.8216 16.3214 35.8384L16.3202 24.7616ZM22.0226 35.2346H19.4513V24.7616H22.0226V35.2346ZM28.6875 35.8346C26.8656 32.4061 25.041 28.4666 23.219 24.7579H26.1137L28.6851 30.432L31.161 24.7577H33.9969C32.2313 28.4765 30.4607 32.401 28.6913 35.8381L28.6875 35.8346ZM42.1287 27.0506H37.7769V28.8576H42.1337V31.1424H37.7769V32.9388H42.1337V35.2237H35.2031V24.7543H42.1337L42.1287 27.0506ZM48.6626 24.1621C46.8933 27.6541 45.1239 31.4197 43.3545 35.2388H46.041L46.5762 33.9838H50.7651L51.3026 35.2388H54.0859C52.2517 31.4192 50.4296 27.6 48.6626 24.1616V24.1621ZM47.3292 32.0184L48.6626 28.972L49.9508 32.0184H47.3292Z" fill="white"/>
<path d="M13.0798 12.84L13.6995 14.7057L15.7047 14.7057L14.0825 15.8587L14.7021 17.7243L13.0798 16.5713L11.4575 17.7243L12.0772 15.8587L10.4549 14.7057L12.4602 14.7057L13.0798 12.84Z" fill="#F7F7F7"/>
<path d="M41.8201 6.96L42.4263 8.82565L44.388 8.82565L42.8009 9.97869L43.4071 11.8443L41.8201 10.6913L40.2331 11.8443L40.8393 9.97869L39.2523 8.82565L41.2139 8.82565L41.8201 6.96Z" fill="#F7F7F7"/>
<path d="M36.2402 13.56L36.6982 14.9696H38.1804L36.9813 15.8408L37.4393 17.2504L36.2402 16.3792L35.0411 17.2504L35.4991 15.8408L34.3 14.9696H35.7822L36.2402 13.56Z" fill="#F7F7F7"/>
<path d="M29.9399 3.36L30.5191 5.10128H32.3936L30.8771 6.17745L31.4563 7.91872L29.9399 6.84256L28.4234 7.91872L29.0026 6.17745L27.4861 5.10128H29.3606L29.9399 3.36Z" fill="#F7F7F7"/>
<path d="M46.92 14.52L47.2433 15.4736H48.2895L47.4431 16.0629L47.7664 17.0164L46.92 16.4271L46.0736 17.0164L46.3969 16.0629L45.5505 15.4736H46.5967L46.92 14.52Z" fill="#F7F7F7"/>
<path d="M18.9 6.6L19.2098 7.55356H20.2125L19.4013 8.14289L19.7112 9.09644L18.9 8.50711L18.0889 9.09644L18.3987 8.14289L17.5876 7.55356H18.5902L18.9 6.6Z" fill="#F7F7F7"/>
<path d="M24.2999 11.28L24.7175 12.5652H26.0689L24.9756 13.3595L25.3932 14.6448L24.2999 13.8505L23.2067 14.6448L23.6243 13.3595L22.531 12.5652H23.8823L24.2999 11.28Z" fill="#F7F7F7"/>
</g>
<defs>
<clipPath id="clip0_111_6">
<rect width="60" height="60" fill="white"/>
</clipPath>
</defs>
</svg>
